# MagicaVoxel @ Ephtracy

# group
o 

# material
mtllib VectorMan-9.mtl
usemtl palette

# normals
vn -1 0 0
vn 1 0 0
vn 0 0 1
vn 0 0 -1
vn 0 -1 0
vn 0 1 0

# texcoords
vt 0.759766 0.5
vt 0.818359 0.5
vt 0.822266 0.5
vt 0.826172 0.5

# verts
v -0.4 0 0.5
v -0.4 0 -0.6
v -0.4 0 -0.7
v -0.4 0.1 0.5
v -0.4 0.1 0.4
v -0.4 0.1 0.1
v -0.4 0.1 -0.6
v -0.4 0.1 -0.7
v -0.4 0.2 0.5
v -0.4 0.2 0.4
v -0.4 0.2 0.1
v -0.4 0.2 -0.7
v -0.2 0 0.7
v -0.2 0 0.5
v -0.2 0.1 0.6
v -0.2 0.1 0.5
v -0.2 0.2 0.7
v -0.2 0.2 0.6
v -0.2 0.2 0.5
v -0.2 0.2 0.3
v -0.2 0.2 0.2
v -0.2 0.2 0.1
v -0.2 0.2 0
v -0.2 0.2 -0.3
v -0.2 0.2 -0.4
v -0.2 0.2 -0.5
v -0.2 0.2 -0.6
v -0.2 0.2 -0.7
v -0.2 0.3 0
v -0.2 0.3 -0.2
v -0.2 0.3 -0.3
v -0.2 0.3 -0.4
v -0.2 0.3 -0.5
v -0.2 0.3 -0.6
v -0.2 0.4 0.3
v -0.2 0.4 0.2
v -0.2 0.4 0.1
v -0.2 0.4 0
v -0.2 0.4 -0.2
v -0.2 0.4 -0.3
v -0.2 0.4 -0.4
v -0.2 0.4 -0.5
v -0.2 0.4 -0.6
v -0.2 0.4 -0.7
v 0 0.4 0.1
v 0 0.4 0
v 0 0.4 -0.1
v 0 0.4 -0.2
v 0 0.4 -0.4
v 0 0.4 -0.5
v 0 0.4 -0.6
v 0 0.4 -0.7
v 0 0.5 0
v 0 0.5 -0.1
v 0 0.5 -0.2
v 0 0.5 -0.4
v 0 0.5 -0.5
v 0 0.6 0.1
v 0 0.6 0
v 0 0.6 -0.1
v 0 0.6 -0.2
v 0 0.6 -0.4
v 0 0.6 -0.5
v 0 0.6 -0.6
v 0 0.6 -0.7
v 0.4 0 0.7
v 0.4 0 0.5
v 0.4 0 0.4
v 0.4 0 0.2
v 0.4 0 0.1
v 0.4 0 0
v 0.4 0 -0.1
v 0.4 0 -0.3
v 0.4 0 -0.6
v 0.4 0 -0.7
v 0.4 0.1 0.7
v 0.4 0.1 0.6
v 0.4 0.1 0.5
v 0.4 0.1 0.4
v 0.4 0.1 0.2
v 0.4 0.1 0.1
v 0.4 0.1 0
v 0.4 0.1 -0.1
v 0.4 0.1 -0.3
v 0.4 0.2 0.7
v 0.4 0.2 0.6
v 0.4 0.2 0.3
v 0.4 0.2 0
v 0.4 0.2 -0.1
v 0.4 0.2 -0.2
v 0.4 0.2 -0.3
v 0.4 0.2 -0.6
v 0.4 0.2 -0.7
v 0.4 0.3 0.3
v 0.4 0.3 0.2
v 0.4 0.3 -0.2
v 0.4 0.3 -0.3
v 0.4 0.4 0.3
v 0.4 0.4 0.2
v 0.4 0.4 0.1
v 0.4 0.4 0
v 0.4 0.5 -0.1
v 0.4 0.5 -0.2
v 0.4 0.5 -0.3
v 0.4 0.5 -0.4
v 0.4 0.5 -0.6
v 0.4 0.5 -0.7
v 0.4 0.6 0.1
v 0.4 0.6 0
v 0.4 0.6 -0.1
v 0.4 0.6 -0.2
v 0.4 0.6 -0.3
v 0.4 0.6 -0.4
v 0.4 0.6 -0.6
v 0.4 0.6 -0.7
v -0.2 0 0.7
v -0.2 0.2 0.7
v -0.1 0.1 0.7
v -0.1 0.2 0.7
v 0.3 0 0.7
v 0.3 0.1 0.7
v 0.4 0 0.7
v 0.4 0.1 0.7
v 0.4 0.2 0.7
v -0.4 0 0.5
v -0.4 0.1 0.5
v -0.4 0.2 0.5
v -0.2 0 0.5
v -0.2 0.1 0.5
v -0.2 0.2 0.5
v -0.2 0.2 0.3
v -0.2 0.4 0.3
v -0.1 0.2 0.3
v -0.1 0.4 0.3
v 0 0.2 0.3
v 0 0.3 0.3
v 0 0.4 0.3
v 0.1 0.2 0.3
v 0.2 0.2 0.3
v 0.2 0.3 0.3
v 0.3 0.2 0.3
v 0.4 0.2 0.3
v 0.4 0.3 0.3
v 0.4 0.4 0.3
v 0 0.4 0.1
v 0 0.6 0.1
v 0.1 0.4 0.1
v 0.1 0.5 0.1
v 0.3 0.5 0.1
v 0.3 0.6 0.1
v 0.4 0.4 0.1
v 0.4 0.6 0.1
v -0.4 0 -0.7
v -0.4 0.1 -0.7
v -0.4 0.2 -0.7
v -0.2 0 -0.7
v -0.2 0.1 -0.7
v -0.2 0.2 -0.7
v -0.2 0.4 -0.7
v -0.1 0 -0.7
v -0.1 0.1 -0.7
v -0.1 0.2 -0.7
v -0.1 0.3 -0.7
v 0 0.3 -0.7
v 0 0.4 -0.7
v 0 0.6 -0.7
v 0.1 0.1 -0.7
v 0.1 0.3 -0.7
v 0.1 0.4 -0.7
v 0.1 0.5 -0.7
v 0.2 0.1 -0.7
v 0.2 0.3 -0.7
v 0.3 0 -0.7
v 0.3 0.1 -0.7
v 0.3 0.2 -0.7
v 0.3 0.5 -0.7
v 0.3 0.6 -0.7
v 0.4 0 -0.7
v 0.4 0.2 -0.7
v 0.4 0.5 -0.7
v 0.4 0.6 -0.7
v -0.2 0 0.7
v 0.3 0 0.7
v 0.4 0 0.7
v -0.4 0 0.5
v -0.2 0 0.5
v 0.3 0 0.5
v 0.4 0 0.5
v 0.3 0 0.4
v 0.4 0 0.4
v 0.3 0 0.2
v 0.4 0 0.2
v 0.3 0 0.1
v 0.4 0 0.1
v 0.3 0 0
v 0.4 0 0
v 0.3 0 -0.1
v 0.4 0 -0.1
v 0.3 0 -0.3
v 0.4 0 -0.3
v -0.4 0 -0.6
v -0.2 0 -0.6
v -0.1 0 -0.6
v 0.3 0 -0.6
v 0.4 0 -0.6
v -0.4 0 -0.7
v -0.2 0 -0.7
v -0.1 0 -0.7
v 0.3 0 -0.7
v 0.4 0 -0.7
v -0.2 0.2 0.7
v -0.1 0.2 0.7
v 0.4 0.2 0.7
v -0.2 0.2 0.6
v -0.1 0.2 0.6
v 0.2 0.2 0.6
v 0.4 0.2 0.6
v -0.4 0.2 0.5
v -0.2 0.2 0.5
v 0.1 0.2 0.5
v -0.4 0.2 0.4
v -0.2 0.2 0.4
v 0.1 0.2 0.4
v 0.2 0.2 0.4
v 0.3 0.2 0.4
v -0.2 0.2 0.3
v -0.1 0.2 0.3
v 0 0.2 0.3
v 0.1 0.2 0.3
v 0.2 0.2 0.3
v 0.3 0.2 0.3
v 0.4 0.2 0.3
v -0.2 0.2 0.2
v -0.4 0.2 0.1
v -0.2 0.2 0.1
v -0.3 0.2 0
v -0.2 0.2 0
v -0.2 0.2 -0.3
v -0.3 0.2 -0.4
v -0.2 0.2 -0.4
v -0.3 0.2 -0.5
v -0.2 0.2 -0.5
v -0.3 0.2 -0.6
v -0.2 0.2 -0.6
v -0.4 0.2 -0.7
v -0.2 0.2 -0.7
v -0.2 0.4 0.3
v -0.1 0.4 0.3
v 0 0.4 0.3
v 0.4 0.4 0.3
v -0.2 0.4 0.2
v -0.1 0.4 0.2
v 0 0.4 0.2
v 0.4 0.4 0.2
v -0.2 0.4 0.1
v 0 0.4 0.1
v 0.1 0.4 0.1
v 0.4 0.4 0.1
v -0.2 0.4 0
v 0 0.4 0
v 0 0.4 -0.1
v -0.2 0.4 -0.2
v 0 0.4 -0.2
v -0.2 0.4 -0.3
v -0.1 0.4 -0.3
v -0.2 0.4 -0.4
v -0.1 0.4 -0.4
v 0 0.4 -0.4
v -0.2 0.4 -0.5
v -0.1 0.4 -0.5
v 0 0.4 -0.5
v -0.2 0.4 -0.6
v -0.1 0.4 -0.6
v 0 0.4 -0.6
v -0.2 0.4 -0.7
v 0 0.4 -0.7
v 0 0.6 0.1
v 0.3 0.6 0.1
v 0.4 0.6 0.1
v 0 0.6 0
v 0.1 0.6 0
v 0.3 0.6 0
v 0.4 0.6 0
v 0 0.6 -0.1
v 0.1 0.6 -0.1
v 0.2 0.6 -0.1
v 0.3 0.6 -0.1
v 0.4 0.6 -0.1
v 0 0.6 -0.2
v 0.1 0.6 -0.2
v 0.3 0.6 -0.2
v 0.4 0.6 -0.2
v 0.3 0.6 -0.3
v 0.4 0.6 -0.3
v 0 0.6 -0.4
v 0.1 0.6 -0.4
v 0.3 0.6 -0.4
v 0.4 0.6 -0.4
v 0 0.6 -0.5
v 0.1 0.6 -0.5
v 0.2 0.6 -0.5
v 0 0.6 -0.6
v 0.1 0.6 -0.6
v 0.3 0.6 -0.6
v 0.4 0.6 -0.6
v 0 0.6 -0.7
v 0.3 0.6 -0.7
v 0.4 0.6 -0.7

# faces
f 4/3/1 2/3/1 1/3/1
f 5/3/1 2/3/1 4/3/1
f 6/3/1 2/3/1 5/3/1
f 7/4/1 3/4/1 2/4/1
f 7/3/1 2/3/1 6/3/1
f 8/4/1 3/4/1 7/4/1
f 9/2/1 5/2/1 4/2/1
f 10/3/1 6/3/1 5/3/1
f 10/2/1 5/2/1 9/2/1
f 11/1/1 7/1/1 6/1/1
f 11/3/1 6/3/1 10/3/1
f 11/1/1 8/1/1 7/1/1
f 12/1/1 8/1/1 11/1/1
f 15/3/1 14/3/1 13/3/1
f 16/3/1 14/3/1 15/3/1
f 17/3/1 15/3/1 13/3/1
f 18/2/1 16/2/1 15/2/1
f 18/3/1 15/3/1 17/3/1
f 19/2/1 16/2/1 18/2/1
f 29/1/1 23/1/1 22/1/1
f 29/4/1 24/4/1 23/4/1
f 30/4/1 24/4/1 29/4/1
f 31/3/1 27/3/1 26/3/1
f 31/4/1 24/4/1 30/4/1
f 31/3/1 26/3/1 25/3/1
f 31/3/1 25/3/1 24/3/1
f 32/3/1 27/3/1 31/3/1
f 33/3/1 27/3/1 32/3/1
f 34/1/1 28/1/1 27/1/1
f 34/3/1 27/3/1 33/3/1
f 35/2/1 21/2/1 20/2/1
f 36/3/1 22/3/1 21/3/1
f 36/2/1 21/2/1 35/2/1
f 37/1/1 29/1/1 22/1/1
f 37/3/1 22/3/1 36/3/1
f 38/3/1 30/3/1 29/3/1
f 38/1/1 29/1/1 37/1/1
f 39/1/1 31/1/1 30/1/1
f 39/3/1 30/3/1 38/3/1
f 40/2/1 32/2/1 31/2/1
f 40/1/1 31/1/1 39/1/1
f 41/3/1 33/3/1 32/3/1
f 41/2/1 32/2/1 40/2/1
f 42/2/1 34/2/1 33/2/1
f 42/3/1 33/3/1 41/3/1
f 43/1/1 28/1/1 34/1/1
f 43/2/1 34/2/1 42/2/1
f 44/1/1 28/1/1 43/1/1
f 53/1/1 46/1/1 45/1/1
f 53/2/1 47/2/1 46/2/1
f 54/3/1 48/3/1 47/3/1
f 54/2/1 47/2/1 53/2/1
f 55/1/1 49/1/1 48/1/1
f 55/3/1 48/3/1 54/3/1
f 56/2/1 50/2/1 49/2/1
f 56/1/1 49/1/1 55/1/1
f 57/3/1 51/3/1 50/3/1
f 57/2/1 50/2/1 56/2/1
f 58/1/1 53/1/1 45/1/1
f 59/3/1 54/3/1 53/3/1
f 59/1/1 53/1/1 58/1/1
f 60/1/1 55/1/1 54/1/1
f 60/3/1 54/3/1 59/3/1
f 61/2/1 56/2/1 55/2/1
f 61/1/1 55/1/1 60/1/1
f 62/1/1 57/1/1 56/1/1
f 62/2/1 56/2/1 61/2/1
f 63/3/1 51/3/1 57/3/1
f 63/1/1 57/1/1 62/1/1
f 64/1/1 52/1/1 51/1/1
f 64/3/1 51/3/1 63/3/1
f 65/1/1 52/1/1 64/1/1
f 66/4/2 67/4/2 76/4/2
f 76/4/2 67/4/2 77/4/2
f 67/3/2 68/3/2 78/3/2
f 77/4/2 67/4/2 78/4/2
f 68/4/2 69/4/2 79/4/2
f 78/3/2 68/3/2 79/3/2
f 69/3/2 70/3/2 80/3/2
f 79/4/2 69/4/2 80/4/2
f 70/4/2 71/4/2 81/4/2
f 80/3/2 70/3/2 81/3/2
f 71/3/2 72/3/2 82/3/2
f 81/4/2 71/4/2 82/4/2
f 72/4/2 73/4/2 83/4/2
f 82/3/2 72/3/2 83/3/2
f 73/3/2 74/3/2 84/3/2
f 83/4/2 73/4/2 84/4/2
f 76/2/2 77/2/2 85/2/2
f 77/3/2 78/3/2 86/3/2
f 85/2/2 77/2/2 86/2/2
f 78/3/2 79/3/2 86/3/2
f 79/3/2 80/3/2 86/3/2
f 80/3/2 81/3/2 86/3/2
f 81/3/2 82/3/2 86/3/2
f 86/3/2 82/3/2 87/3/2
f 82/4/2 83/4/2 88/4/2
f 87/3/2 82/3/2 88/3/2
f 83/3/2 84/3/2 89/3/2
f 88/4/2 83/4/2 89/4/2
f 89/3/2 84/3/2 90/3/2
f 84/3/2 74/3/2 91/3/2
f 90/3/2 84/3/2 91/3/2
f 74/4/2 75/4/2 92/4/2
f 91/3/2 74/3/2 92/3/2
f 92/4/2 75/4/2 93/4/2
f 89/3/2 90/3/2 94/3/2
f 87/3/2 88/3/2 94/3/2
f 88/3/2 89/3/2 94/3/2
f 94/3/2 90/3/2 95/3/2
f 90/4/2 91/4/2 96/4/2
f 95/3/2 90/3/2 96/3/2
f 91/3/2 92/3/2 97/3/2
f 96/4/2 91/4/2 97/4/2
f 94/2/2 95/2/2 98/2/2
f 95/3/2 96/3/2 99/3/2
f 98/2/2 95/2/2 99/2/2
f 96/3/2 97/3/2 99/3/2
f 99/3/2 97/3/2 100/3/2
f 100/3/2 97/3/2 101/3/2
f 101/3/2 97/3/2 102/3/2
f 102/3/2 97/3/2 103/3/2
f 97/3/2 92/3/2 104/3/2
f 103/3/2 97/3/2 104/3/2
f 104/3/2 92/3/2 105/3/2
f 92/2/2 93/2/2 106/2/2
f 105/3/2 92/3/2 106/3/2
f 106/2/2 93/2/2 107/2/2
f 100/4/2 101/4/2 108/4/2
f 101/3/2 102/3/2 109/3/2
f 108/4/2 101/4/2 109/4/2
f 102/4/2 103/4/2 110/4/2
f 109/3/2 102/3/2 110/3/2
f 103/3/2 104/3/2 111/3/2
f 110/4/2 103/4/2 111/4/2
f 104/4/2 105/4/2 112/4/2
f 111/3/2 104/3/2 112/3/2
f 105/3/2 106/3/2 113/3/2
f 112/4/2 105/4/2 113/4/2
f 106/4/2 107/4/2 114/4/2
f 113/3/2 106/3/2 114/3/2
f 114/4/2 107/4/2 115/4/2
f 118/3/3 117/3/3 116/3/3
f 119/3/3 117/3/3 118/3/3
f 120/3/3 118/3/3 116/3/3
f 121/2/3 119/2/3 118/2/3
f 121/3/3 118/3/3 120/3/3
f 122/4/3 121/4/3 120/4/3
f 123/2/3 119/2/3 121/2/3
f 123/4/3 121/4/3 122/4/3
f 124/2/3 119/2/3 123/2/3
f 128/3/3 126/3/3 125/3/3
f 129/2/3 127/2/3 126/2/3
f 129/3/3 126/3/3 128/3/3
f 130/2/3 127/2/3 129/2/3
f 133/2/3 132/2/3 131/2/3
f 134/2/3 132/2/3 133/2/3
f 135/3/3 134/3/3 133/3/3
f 136/3/3 134/3/3 135/3/3
f 137/3/3 134/3/3 136/3/3
f 138/4/3 136/4/3 135/4/3
f 139/4/3 136/4/3 138/4/3
f 140/2/3 137/2/3 136/2/3
f 140/4/3 136/4/3 139/4/3
f 141/3/3 140/3/3 139/3/3
f 142/3/3 140/3/3 141/3/3
f 143/2/3 137/2/3 140/2/3
f 143/3/3 140/3/3 142/3/3
f 144/2/3 137/2/3 143/2/3
f 147/1/3 146/1/3 145/1/3
f 148/1/3 146/1/3 147/1/3
f 149/4/3 148/4/3 147/4/3
f 149/1/3 146/1/3 148/1/3
f 150/1/3 146/1/3 149/1/3
f 151/4/3 149/4/3 147/4/3
f 151/4/3 150/4/3 149/4/3
f 152/4/3 150/4/3 151/4/3
f 153/4/4 154/4/4 156/4/4
f 154/1/4 155/1/4 157/1/4
f 156/4/4 154/4/4 157/4/4
f 157/1/4 155/1/4 158/1/4
f 156/3/4 157/3/4 160/3/4
f 157/3/4 158/3/4 160/3/4
f 160/3/4 158/3/4 161/3/4
f 158/1/4 159/1/4 162/1/4
f 161/3/4 158/3/4 162/3/4
f 162/1/4 159/1/4 163/1/4
f 161/3/4 162/3/4 164/3/4
f 163/1/4 159/1/4 164/1/4
f 162/3/4 163/3/4 164/3/4
f 164/1/4 159/1/4 165/1/4
f 160/2/4 161/2/4 167/2/4
f 161/3/4 164/3/4 167/3/4
f 164/3/4 165/3/4 167/3/4
f 167/3/4 165/3/4 168/3/4
f 165/1/4 166/1/4 169/1/4
f 168/3/4 165/3/4 169/3/4
f 169/1/4 166/1/4 170/1/4
f 167/4/4 168/4/4 171/4/4
f 160/2/4 167/2/4 171/2/4
f 169/3/4 170/3/4 172/3/4
f 171/4/4 168/4/4 172/4/4
f 168/3/4 169/3/4 172/3/4
f 160/2/4 171/2/4 173/2/4
f 171/3/4 172/3/4 174/3/4
f 173/2/4 171/2/4 174/2/4
f 174/3/4 172/3/4 175/3/4
f 170/1/4 166/1/4 176/1/4
f 175/3/4 172/3/4 176/3/4
f 172/3/4 170/3/4 176/3/4
f 176/1/4 166/1/4 177/1/4
f 174/4/4 175/4/4 178/4/4
f 173/4/4 174/4/4 178/4/4
f 175/2/4 176/2/4 179/2/4
f 178/4/4 175/4/4 179/4/4
f 176/4/4 177/4/4 180/4/4
f 179/2/4 176/2/4 180/2/4
f 180/4/4 177/4/4 181/4/4
f 186/3/5 183/3/5 182/3/5
f 187/4/5 184/4/5 183/4/5
f 187/3/5 183/3/5 186/3/5
f 188/4/5 184/4/5 187/4/5
f 189/3/5 186/3/5 185/3/5
f 189/3/5 187/3/5 186/3/5
f 189/3/5 188/3/5 187/3/5
f 190/3/5 188/3/5 189/3/5
f 191/3/5 189/3/5 185/3/5
f 191/4/5 190/4/5 189/4/5
f 192/4/5 190/4/5 191/4/5
f 193/3/5 191/3/5 185/3/5
f 193/3/5 192/3/5 191/3/5
f 194/3/5 192/3/5 193/3/5
f 195/3/5 193/3/5 185/3/5
f 195/4/5 194/4/5 193/4/5
f 196/4/5 194/4/5 195/4/5
f 197/3/5 195/3/5 185/3/5
f 197/3/5 196/3/5 195/3/5
f 198/3/5 196/3/5 197/3/5
f 199/3/5 197/3/5 185/3/5
f 199/4/5 198/4/5 197/4/5
f 200/4/5 198/4/5 199/4/5
f 201/3/5 199/3/5 185/3/5
f 201/3/5 200/3/5 199/3/5
f 202/3/5 200/3/5 201/3/5
f 203/3/5 200/3/5 202/3/5
f 204/3/5 200/3/5 203/3/5
f 205/3/5 200/3/5 204/3/5
f 206/4/5 202/4/5 201/4/5
f 207/3/5 203/3/5 202/3/5
f 207/4/5 202/4/5 206/4/5
f 208/2/5 204/2/5 203/2/5
f 208/3/5 203/3/5 207/3/5
f 209/4/5 205/4/5 204/4/5
f 209/2/5 204/2/5 208/2/5
f 210/4/5 205/4/5 209/4/5
f 211/3/6 212/3/6 214/3/6
f 212/2/6 213/2/6 215/2/6
f 214/3/6 212/3/6 215/3/6
f 215/2/6 213/2/6 216/2/6
f 216/2/6 213/2/6 217/2/6
f 214/2/6 215/2/6 219/2/6
f 215/2/6 216/2/6 219/2/6
f 219/2/6 216/2/6 220/2/6
f 218/2/6 219/2/6 221/2/6
f 219/3/6 220/3/6 222/3/6
f 221/2/6 219/2/6 222/2/6
f 220/2/6 216/2/6 223/2/6
f 222/3/6 220/3/6 223/3/6
f 216/3/6 217/3/6 224/3/6
f 223/2/6 216/2/6 224/2/6
f 224/3/6 217/3/6 225/3/6
f 222/3/6 223/3/6 226/3/6
f 221/3/6 222/3/6 226/3/6
f 226/3/6 223/3/6 227/3/6
f 227/3/6 223/3/6 228/3/6
f 224/4/6 225/4/6 229/4/6
f 228/3/6 223/3/6 229/3/6
f 223/4/6 224/4/6 229/4/6
f 229/4/6 225/4/6 230/4/6
f 225/3/6 217/3/6 231/3/6
f 230/4/6 225/4/6 231/4/6
f 231/3/6 217/3/6 232/3/6
f 221/3/6 226/3/6 233/3/6
f 221/3/6 233/3/6 234/3/6
f 234/3/6 233/3/6 235/3/6
f 234/1/6 235/1/6 236/1/6
f 236/1/6 235/1/6 237/1/6
f 236/4/6 237/4/6 238/4/6
f 234/1/6 236/1/6 239/1/6
f 236/4/6 238/4/6 239/4/6
f 239/4/6 238/4/6 240/4/6
f 234/1/6 239/1/6 241/1/6
f 239/3/6 240/3/6 241/3/6
f 241/3/6 240/3/6 242/3/6
f 234/1/6 241/1/6 243/1/6
f 241/2/6 242/2/6 243/2/6
f 243/2/6 242/2/6 244/2/6
f 234/1/6 243/1/6 245/1/6
f 243/1/6 244/1/6 245/1/6
f 245/1/6 244/1/6 246/1/6
f 247/2/6 248/2/6 251/2/6
f 248/3/6 249/3/6 252/3/6
f 251/2/6 248/2/6 252/2/6
f 249/2/6 250/2/6 253/2/6
f 252/3/6 249/3/6 253/3/6
f 253/2/6 250/2/6 254/2/6
f 251/3/6 252/3/6 255/3/6
f 252/3/6 253/3/6 255/3/6
f 253/3/6 254/3/6 255/3/6
f 255/3/6 254/3/6 256/3/6
f 256/3/6 254/3/6 257/3/6
f 257/3/6 254/3/6 258/3/6
f 255/1/6 256/1/6 259/1/6
f 259/1/6 256/1/6 260/1/6
f 259/3/6 260/3/6 261/3/6
f 259/3/6 261/3/6 262/3/6
f 262/3/6 261/3/6 263/3/6
f 262/1/6 263/1/6 264/1/6
f 264/1/6 263/1/6 265/1/6
f 264/2/6 265/2/6 266/2/6
f 265/1/6 263/1/6 267/1/6
f 266/2/6 265/2/6 267/2/6
f 267/1/6 263/1/6 268/1/6
f 266/3/6 267/3/6 269/3/6
f 267/3/6 268/3/6 269/3/6
f 269/3/6 268/3/6 270/3/6
f 270/3/6 268/3/6 271/3/6
f 269/2/6 270/2/6 272/2/6
f 270/3/6 271/3/6 273/3/6
f 272/2/6 270/2/6 273/2/6
f 273/3/6 271/3/6 274/3/6
f 272/1/6 273/1/6 275/1/6
f 273/1/6 274/1/6 275/1/6
f 275/1/6 274/1/6 276/1/6
f 277/1/6 278/1/6 280/1/6
f 280/1/6 278/1/6 281/1/6
f 278/4/6 279/4/6 282/4/6
f 281/1/6 278/1/6 282/1/6
f 282/4/6 279/4/6 283/4/6
f 280/3/6 281/3/6 284/3/6
f 281/1/6 282/1/6 285/1/6
f 284/3/6 281/3/6 285/3/6
f 285/1/6 282/1/6 286/1/6
f 282/3/6 283/3/6 287/3/6
f 286/1/6 282/1/6 287/1/6
f 287/3/6 283/3/6 288/3/6
f 284/1/6 285/1/6 289/1/6
f 285/3/6 286/3/6 290/3/6
f 289/1/6 285/1/6 290/1/6
f 286/1/6 287/1/6 291/1/6
f 287/4/6 288/4/6 291/4/6
f 291/4/6 288/4/6 292/4/6
f 286/1/6 291/1/6 293/1/6
f 291/3/6 292/3/6 293/3/6
f 293/3/6 292/3/6 294/3/6
f 289/2/6 290/2/6 295/2/6
f 290/3/6 286/3/6 296/3/6
f 295/2/6 290/2/6 296/2/6
f 286/1/6 293/1/6 297/1/6
f 293/4/6 294/4/6 297/4/6
f 297/4/6 294/4/6 298/4/6
f 295/1/6 296/1/6 299/1/6
f 296/3/6 286/3/6 300/3/6
f 299/1/6 296/1/6 300/1/6
f 286/1/6 297/1/6 301/1/6
f 300/3/6 286/3/6 301/3/6
f 299/3/6 300/3/6 302/3/6
f 300/1/6 301/1/6 303/1/6
f 302/3/6 300/3/6 303/3/6
f 301/1/6 297/1/6 304/1/6
f 303/1/6 301/1/6 304/1/6
f 297/3/6 298/3/6 304/3/6
f 304/3/6 298/3/6 305/3/6
f 302/1/6 303/1/6 306/1/6
f 303/1/6 304/1/6 306/1/6
f 304/4/6 305/4/6 307/4/6
f 306/1/6 304/1/6 307/1/6
f 307/4/6 305/4/6 308/4/6
