# MagicaVoxel @ Ephtracy

# group
o 

# material
mtllib VectorMan-8.mtl
usemtl palette

# normals
vn -1 0 0
vn 1 0 0
vn 0 0 1
vn 0 0 -1
vn 0 -1 0
vn 0 1 0

# texcoords
vt 0.759766 0.5
vt 0.818359 0.5
vt 0.822266 0.5
vt 0.826172 0.5

# verts
v -0.3 0.2 0.1
v -0.3 0.2 -0.1
v -0.3 0.2 -0.2
v -0.3 0.3 0.1
v -0.3 0.3 0
v -0.3 0.4 -0.1
v -0.3 0.4 -0.2
v -0.3 0.5 0.1
v -0.3 0.5 0
v -0.3 0.5 -0.2
v -0.2 0.1 0.2
v -0.2 0.1 -0.3
v -0.2 0.2 0.1
v -0.2 0.2 -0.1
v -0.2 0.2 -0.2
v -0.2 0.3 0.1
v -0.2 0.4 -0.2
v -0.2 0.5 0.1
v -0.2 0.5 0
v -0.2 0.5 -0.2
v -0.2 0.6 0.2
v -0.2 0.6 -0.3
v -0.1 0 0.1
v -0.1 0 0
v -0.1 0 -0.2
v -0.1 0.1 0.1
v -0.1 0.1 0
v -0.1 0.1 -0.2
v -0.1 0.2 0.3
v -0.1 0.2 0.2
v -0.1 0.2 -0.3
v -0.1 0.2 -0.4
v -0.1 0.3 0.3
v -0.1 0.3 0.2
v -0.1 0.5 0.3
v -0.1 0.5 0.2
v -0.1 0.5 -0.3
v -0.1 0.5 -0.4
v -0.1 0.6 0.1
v -0.1 0.6 -0.2
v -0.1 0.7 0.1
v -0.1 0.7 -0.2
v 0.2 0 0.1
v 0.2 0 0
v 0.2 0 -0.1
v 0.2 0 -0.2
v 0.2 0.1 0.1
v 0.2 0.1 0
v 0.2 0.1 -0.1
v 0.2 0.1 -0.2
v 0.2 0.2 0.3
v 0.2 0.2 0.2
v 0.2 0.2 -0.3
v 0.2 0.2 -0.4
v 0.2 0.3 0.2
v 0.2 0.3 -0.3
v 0.2 0.3 -0.4
v 0.2 0.4 0.3
v 0.2 0.4 0.2
v 0.2 0.5 0.3
v 0.2 0.5 0.2
v 0.2 0.5 -0.3
v 0.2 0.5 -0.4
v 0.2 0.6 0.1
v 0.2 0.6 0
v 0.2 0.6 -0.1
v 0.2 0.6 -0.2
v 0.2 0.7 0.1
v 0.2 0.7 0
v 0.2 0.7 -0.1
v 0.2 0.7 -0.2
v 0.3 0.1 0.2
v 0.3 0.1 0.1
v 0.3 0.1 0
v 0.3 0.1 -0.1
v 0.3 0.1 -0.3
v 0.3 0.2 0.2
v 0.3 0.2 0.1
v 0.3 0.2 0
v 0.3 0.2 -0.1
v 0.3 0.2 -0.2
v 0.3 0.2 -0.3
v 0.3 0.3 0.2
v 0.3 0.3 0.1
v 0.3 0.3 -0.2
v 0.3 0.4 0.2
v 0.3 0.4 0.1
v 0.3 0.5 0.1
v 0.3 0.5 -0.2
v 0.3 0.6 0.2
v 0.3 0.6 -0.2
v 0.3 0.6 -0.3
v 0.4 0.2 0.1
v 0.4 0.2 0
v 0.4 0.2 -0.1
v 0.4 0.2 -0.2
v 0.4 0.3 -0.1
v 0.4 0.3 -0.2
v 0.4 0.4 0.1
v 0.4 0.4 0
v 0.4 0.5 0.1
v 0.4 0.5 -0.2
v -0.1 0.2 0.3
v -0.1 0.3 0.3
v -0.1 0.5 0.3
v 0 0.2 0.3
v 0 0.3 0.3
v 0 0.4 0.3
v 0 0.5 0.3
v 0.2 0.2 0.3
v 0.2 0.4 0.3
v 0.2 0.5 0.3
v -0.2 0.1 0.2
v -0.2 0.6 0.2
v -0.1 0.1 0.2
v -0.1 0.2 0.2
v -0.1 0.3 0.2
v -0.1 0.5 0.2
v -0.1 0.6 0.2
v 0 0.2 0.2
v 0 0.5 0.2
v 0 0.6 0.2
v 0.1 0.1 0.2
v 0.1 0.2 0.2
v 0.2 0.1 0.2
v 0.2 0.2 0.2
v 0.2 0.3 0.2
v 0.2 0.4 0.2
v 0.2 0.5 0.2
v 0.2 0.6 0.2
v 0.3 0.1 0.2
v 0.3 0.2 0.2
v 0.3 0.3 0.2
v 0.3 0.4 0.2
v 0.3 0.6 0.2
v -0.3 0.2 0.1
v -0.3 0.3 0.1
v -0.3 0.5 0.1
v -0.2 0.2 0.1
v -0.2 0.3 0.1
v -0.2 0.5 0.1
v -0.1 0 0.1
v -0.1 0.1 0.1
v -0.1 0.6 0.1
v -0.1 0.7 0.1
v 0 0.6 0.1
v 0 0.7 0.1
v 0.1 0 0.1
v 0.1 0.1 0.1
v 0.2 0 0.1
v 0.2 0.1 0.1
v 0.2 0.6 0.1
v 0.2 0.7 0.1
v 0.3 0.2 0.1
v 0.3 0.3 0.1
v 0.3 0.4 0.1
v 0.3 0.5 0.1
v 0.4 0.2 0.1
v 0.4 0.4 0.1
v 0.4 0.5 0.1
v -0.3 0.2 -0.2
v -0.3 0.4 -0.2
v -0.3 0.5 -0.2
v -0.2 0.2 -0.2
v -0.2 0.4 -0.2
v -0.2 0.5 -0.2
v -0.1 0 -0.2
v -0.1 0.1 -0.2
v -0.1 0.6 -0.2
v -0.1 0.7 -0.2
v 0 0.1 -0.2
v 0 0.6 -0.2
v 0 0.7 -0.2
v 0.1 0 -0.2
v 0.1 0.1 -0.2
v 0.2 0 -0.2
v 0.2 0.1 -0.2
v 0.2 0.6 -0.2
v 0.2 0.7 -0.2
v 0.3 0.2 -0.2
v 0.3 0.3 -0.2
v 0.3 0.5 -0.2
v 0.4 0.2 -0.2
v 0.4 0.3 -0.2
v 0.4 0.5 -0.2
v -0.2 0.1 -0.3
v -0.2 0.6 -0.3
v -0.1 0.1 -0.3
v -0.1 0.2 -0.3
v -0.1 0.5 -0.3
v -0.1 0.6 -0.3
v 0 0.1 -0.3
v 0 0.2 -0.3
v 0 0.5 -0.3
v 0 0.6 -0.3
v 0.1 0.5 -0.3
v 0.2 0.2 -0.3
v 0.2 0.3 -0.3
v 0.2 0.5 -0.3
v 0.3 0.1 -0.3
v 0.3 0.2 -0.3
v 0.3 0.6 -0.3
v -0.1 0.2 -0.4
v -0.1 0.5 -0.4
v 0 0.2 -0.4
v 0 0.3 -0.4
v 0 0.5 -0.4
v 0.1 0.3 -0.4
v 0.1 0.5 -0.4
v 0.2 0.2 -0.4
v 0.2 0.3 -0.4
v 0.2 0.5 -0.4
v -0.1 0 0.1
v 0.1 0 0.1
v 0.2 0 0.1
v -0.1 0 0
v 0 0 0
v 0.1 0 0
v 0.2 0 0
v 0 0 -0.1
v 0.1 0 -0.1
v 0.2 0 -0.1
v -0.1 0 -0.2
v 0.1 0 -0.2
v 0.2 0 -0.2
v -0.2 0.1 0.2
v -0.1 0.1 0.2
v 0.1 0.1 0.2
v 0.2 0.1 0.2
v 0.3 0.1 0.2
v -0.1 0.1 0.1
v 0.1 0.1 0.1
v 0.2 0.1 0.1
v 0.3 0.1 0.1
v -0.1 0.1 0
v 0.2 0.1 0
v 0.3 0.1 0
v 0.2 0.1 -0.1
v 0.3 0.1 -0.1
v -0.1 0.1 -0.2
v 0 0.1 -0.2
v 0.1 0.1 -0.2
v 0.2 0.1 -0.2
v -0.2 0.1 -0.3
v -0.1 0.1 -0.3
v 0 0.1 -0.3
v 0.3 0.1 -0.3
v -0.1 0.2 0.3
v 0 0.2 0.3
v 0.2 0.2 0.3
v -0.1 0.2 0.2
v 0 0.2 0.2
v 0.1 0.2 0.2
v 0.2 0.2 0.2
v -0.3 0.2 0.1
v -0.2 0.2 0.1
v 0.3 0.2 0.1
v 0.4 0.2 0.1
v 0.3 0.2 0
v 0.4 0.2 0
v -0.3 0.2 -0.1
v -0.2 0.2 -0.1
v 0.3 0.2 -0.1
v 0.4 0.2 -0.1
v -0.3 0.2 -0.2
v -0.2 0.2 -0.2
v 0.3 0.2 -0.2
v 0.4 0.2 -0.2
v -0.1 0.2 -0.3
v 0 0.2 -0.3
v 0.2 0.2 -0.3
v -0.1 0.2 -0.4
v 0 0.2 -0.4
v 0.2 0.2 -0.4
v -0.1 0.5 0.3
v 0 0.5 0.3
v 0.2 0.5 0.3
v -0.1 0.5 0.2
v 0 0.5 0.2
v 0.2 0.5 0.2
v -0.3 0.5 0.1
v -0.2 0.5 0.1
v 0.3 0.5 0.1
v 0.4 0.5 0.1
v -0.3 0.5 0
v -0.2 0.5 0
v -0.3 0.5 -0.2
v -0.2 0.5 -0.2
v 0.3 0.5 -0.2
v 0.4 0.5 -0.2
v -0.1 0.5 -0.3
v 0 0.5 -0.3
v 0.1 0.5 -0.3
v 0.2 0.5 -0.3
v -0.1 0.5 -0.4
v 0 0.5 -0.4
v 0.1 0.5 -0.4
v 0.2 0.5 -0.4
v -0.2 0.6 0.2
v -0.1 0.6 0.2
v 0 0.6 0.2
v 0.2 0.6 0.2
v 0.3 0.6 0.2
v -0.1 0.6 0.1
v 0 0.6 0.1
v 0.2 0.6 0.1
v 0.2 0.6 0
v 0.2 0.6 -0.1
v -0.1 0.6 -0.2
v 0 0.6 -0.2
v 0.2 0.6 -0.2
v 0.3 0.6 -0.2
v -0.2 0.6 -0.3
v -0.1 0.6 -0.3
v 0 0.6 -0.3
v 0.3 0.6 -0.3
v -0.1 0.7 0.1
v 0 0.7 0.1
v 0.2 0.7 0.1
v 0 0.7 0
v 0.2 0.7 0
v 0 0.7 -0.1
v 0.2 0.7 -0.1
v -0.1 0.7 -0.2
v 0 0.7 -0.2
v 0.2 0.7 -0.2

# faces
f 4/3/1 2/3/1 1/3/1
f 5/3/1 2/3/1 4/3/1
f 6/4/1 3/4/1 2/4/1
f 6/3/1 2/3/1 5/3/1
f 7/4/1 3/4/1 6/4/1
f 8/4/1 5/4/1 4/4/1
f 9/3/1 6/3/1 5/3/1
f 9/4/1 5/4/1 8/4/1
f 9/3/1 7/3/1 6/3/1
f 10/3/1 7/3/1 9/3/1
f 13/1/1 12/1/1 11/1/1
f 14/1/1 12/1/1 13/1/1
f 15/1/1 12/1/1 14/1/1
f 16/1/1 13/1/1 11/1/1
f 17/1/1 12/1/1 15/1/1
f 18/1/1 16/1/1 11/1/1
f 20/1/1 12/1/1 17/1/1
f 21/1/1 19/1/1 18/1/1
f 21/1/1 20/1/1 19/1/1
f 21/1/1 18/1/1 11/1/1
f 22/1/1 12/1/1 20/1/1
f 22/1/1 20/1/1 21/1/1
f 26/2/1 24/2/1 23/2/1
f 27/4/1 25/4/1 24/4/1
f 27/2/1 24/2/1 26/2/1
f 28/4/1 25/4/1 27/4/1
f 33/2/1 30/2/1 29/2/1
f 34/2/1 30/2/1 33/2/1
f 35/3/1 34/3/1 33/3/1
f 36/3/1 34/3/1 35/3/1
f 37/3/1 32/3/1 31/3/1
f 38/3/1 32/3/1 37/3/1
f 41/3/1 40/3/1 39/3/1
f 42/3/1 40/3/1 41/3/1
f 43/4/2 44/4/2 47/4/2
f 44/2/2 45/2/2 48/2/2
f 47/4/2 44/4/2 48/4/2
f 45/3/2 46/3/2 49/3/2
f 48/2/2 45/2/2 49/2/2
f 49/3/2 46/3/2 50/3/2
f 51/3/2 52/3/2 55/3/2
f 53/2/2 54/2/2 56/2/2
f 56/2/2 54/2/2 57/2/2
f 51/3/2 55/3/2 58/3/2
f 58/3/2 55/3/2 59/3/2
f 58/2/2 59/2/2 60/2/2
f 60/2/2 59/2/2 61/2/2
f 56/3/2 57/3/2 62/3/2
f 62/3/2 57/3/2 63/3/2
f 64/2/2 65/2/2 68/2/2
f 65/3/2 66/3/2 69/3/2
f 68/2/2 65/2/2 69/2/2
f 66/2/2 67/2/2 70/2/2
f 69/3/2 66/3/2 70/3/2
f 70/2/2 67/2/2 71/2/2
f 72/4/2 73/4/2 77/4/2
f 73/3/2 74/3/2 78/3/2
f 77/4/2 73/4/2 78/4/2
f 74/4/2 75/4/2 79/4/2
f 78/3/2 74/3/2 79/3/2
f 75/3/2 76/3/2 80/3/2
f 79/4/2 75/4/2 80/4/2
f 80/3/2 76/3/2 81/3/2
f 81/3/2 76/3/2 82/3/2
f 77/3/2 78/3/2 83/3/2
f 83/3/2 78/3/2 84/3/2
f 81/2/2 82/2/2 85/2/2
f 83/4/2 84/4/2 86/4/2
f 86/4/2 84/4/2 87/4/2
f 86/3/2 87/3/2 88/3/2
f 85/2/2 82/2/2 89/2/2
f 86/3/2 88/3/2 90/3/2
f 88/3/2 89/3/2 90/3/2
f 89/2/2 82/2/2 91/2/2
f 90/3/2 89/3/2 91/3/2
f 91/2/2 82/2/2 92/2/2
f 94/3/2 95/3/2 97/3/2
f 95/4/2 96/4/2 97/4/2
f 97/4/2 96/4/2 98/4/2
f 93/4/2 94/4/2 99/4/2
f 94/3/2 97/3/2 100/3/2
f 99/4/2 94/4/2 100/4/2
f 97/3/2 98/3/2 100/3/2
f 99/3/2 100/3/2 101/3/2
f 100/3/2 98/3/2 102/3/2
f 101/3/2 100/3/2 102/3/2
f 106/2/3 104/2/3 103/2/3
f 107/3/3 105/3/3 104/3/3
f 107/2/3 104/2/3 106/2/3
f 108/3/3 105/3/3 107/3/3
f 109/3/3 105/3/3 108/3/3
f 110/3/3 107/3/3 106/3/3
f 110/3/3 108/3/3 107/3/3
f 111/2/3 109/2/3 108/2/3
f 111/3/3 108/3/3 110/3/3
f 112/2/3 109/2/3 111/2/3
f 115/1/3 114/1/3 113/1/3
f 116/1/3 114/1/3 115/1/3
f 117/1/3 114/1/3 116/1/3
f 118/1/3 114/1/3 117/1/3
f 119/1/3 114/1/3 118/1/3
f 120/4/3 116/4/3 115/4/3
f 121/4/3 119/4/3 118/4/3
f 122/4/3 119/4/3 121/4/3
f 123/4/3 120/4/3 115/4/3
f 124/4/3 120/4/3 123/4/3
f 125/3/3 124/3/3 123/3/3
f 126/3/3 124/3/3 125/3/3
f 129/2/3 122/2/3 121/2/3
f 130/2/3 122/2/3 129/2/3
f 131/4/3 126/4/3 125/4/3
f 132/3/3 127/3/3 126/3/3
f 132/4/3 126/4/3 131/4/3
f 133/4/3 128/4/3 127/4/3
f 133/3/3 127/3/3 132/3/3
f 134/3/3 129/3/3 128/3/3
f 134/4/3 128/4/3 133/4/3
f 134/3/3 130/3/3 129/3/3
f 135/3/3 130/3/3 134/3/3
f 139/3/3 137/3/3 136/3/3
f 140/4/3 138/4/3 137/4/3
f 140/3/3 137/3/3 139/3/3
f 141/4/3 138/4/3 140/4/3
f 146/3/3 145/3/3 144/3/3
f 147/3/3 145/3/3 146/3/3
f 148/2/3 143/2/3 142/2/3
f 149/2/3 143/2/3 148/2/3
f 150/4/3 149/4/3 148/4/3
f 151/4/3 149/4/3 150/4/3
f 152/2/3 147/2/3 146/2/3
f 153/2/3 147/2/3 152/2/3
f 158/4/3 155/4/3 154/4/3
f 158/4/3 156/4/3 155/4/3
f 159/3/3 157/3/3 156/3/3
f 159/4/3 156/4/3 158/4/3
f 160/3/3 157/3/3 159/3/3
f 161/4/4 162/4/4 164/4/4
f 162/3/4 163/3/4 165/3/4
f 164/4/4 162/4/4 165/4/4
f 165/3/4 163/3/4 166/3/4
f 167/4/4 168/4/4 171/4/4
f 169/3/4 170/3/4 172/3/4
f 172/3/4 170/3/4 173/3/4
f 167/4/4 171/4/4 174/4/4
f 174/4/4 171/4/4 175/4/4
f 174/3/4 175/3/4 176/3/4
f 176/3/4 175/3/4 177/3/4
f 172/2/4 173/2/4 178/2/4
f 178/2/4 173/2/4 179/2/4
f 180/4/4 181/4/4 183/4/4
f 181/3/4 182/3/4 184/3/4
f 183/4/4 181/4/4 184/4/4
f 184/3/4 182/3/4 185/3/4
f 186/1/4 187/1/4 188/1/4
f 188/1/4 187/1/4 189/1/4
f 189/1/4 187/1/4 190/1/4
f 190/1/4 187/1/4 191/1/4
f 188/4/4 189/4/4 192/4/4
f 192/4/4 189/4/4 193/4/4
f 190/3/4 191/3/4 194/3/4
f 194/3/4 191/3/4 195/3/4
f 194/2/4 195/2/4 196/2/4
f 192/3/4 193/3/4 197/3/4
f 196/2/4 195/2/4 199/2/4
f 192/3/4 197/3/4 200/3/4
f 197/2/4 198/2/4 201/2/4
f 200/3/4 197/3/4 201/3/4
f 198/2/4 199/2/4 201/2/4
f 199/2/4 195/2/4 202/2/4
f 201/2/4 199/2/4 202/2/4
f 203/3/4 204/3/4 205/3/4
f 205/3/4 204/3/4 206/3/4
f 206/3/4 204/3/4 207/3/4
f 205/2/4 206/2/4 208/2/4
f 206/4/4 207/4/4 208/4/4
f 208/4/4 207/4/4 209/4/4
f 205/2/4 208/2/4 210/2/4
f 208/3/4 209/3/4 211/3/4
f 210/2/4 208/2/4 211/2/4
f 211/3/4 209/3/4 212/3/4
f 216/2/5 214/2/5 213/2/5
f 217/2/5 214/2/5 216/2/5
f 218/4/5 215/4/5 214/4/5
f 218/2/5 214/2/5 217/2/5
f 219/4/5 215/4/5 218/4/5
f 220/4/5 217/4/5 216/4/5
f 220/2/5 218/2/5 217/2/5
f 220/2/5 219/2/5 218/2/5
f 221/2/5 219/2/5 220/2/5
f 222/2/5 219/2/5 221/2/5
f 223/4/5 220/4/5 216/4/5
f 223/4/5 221/4/5 220/4/5
f 224/3/5 222/3/5 221/3/5
f 224/4/5 221/4/5 223/4/5
f 225/3/5 222/3/5 224/3/5
f 231/1/5 227/1/5 226/1/5
f 231/4/5 228/4/5 227/4/5
f 232/3/5 229/3/5 228/3/5
f 232/4/5 228/4/5 231/4/5
f 233/4/5 230/4/5 229/4/5
f 233/3/5 229/3/5 232/3/5
f 234/4/5 230/4/5 233/4/5
f 235/1/5 231/1/5 226/1/5
f 236/3/5 234/3/5 233/3/5
f 237/3/5 234/3/5 236/3/5
f 238/4/5 237/4/5 236/4/5
f 239/4/5 237/4/5 238/4/5
f 240/1/5 235/1/5 226/1/5
f 243/3/5 239/3/5 238/3/5
f 244/1/5 240/1/5 226/1/5
f 245/4/5 241/4/5 240/4/5
f 245/1/5 240/1/5 244/1/5
f 246/3/5 242/3/5 241/3/5
f 246/4/5 241/4/5 245/4/5
f 246/3/5 243/3/5 242/3/5
f 247/3/5 239/3/5 243/3/5
f 247/3/5 243/3/5 246/3/5
f 251/2/5 249/2/5 248/2/5
f 252/3/5 250/3/5 249/3/5
f 252/2/5 249/2/5 251/2/5
f 253/3/5 250/3/5 252/3/5
f 254/3/5 250/3/5 253/3/5
f 259/4/5 258/4/5 257/4/5
f 260/4/5 258/4/5 259/4/5
f 261/3/5 256/3/5 255/3/5
f 262/3/5 256/3/5 261/3/5
f 263/3/5 260/3/5 259/3/5
f 264/3/5 260/3/5 263/3/5
f 265/4/5 262/4/5 261/4/5
f 266/4/5 262/4/5 265/4/5
f 267/4/5 264/4/5 263/4/5
f 268/4/5 264/4/5 267/4/5
f 272/3/5 270/3/5 269/3/5
f 273/2/5 271/2/5 270/2/5
f 273/3/5 270/3/5 272/3/5
f 274/2/5 271/2/5 273/2/5
f 275/3/6 276/3/6 278/3/6
f 276/2/6 277/2/6 279/2/6
f 278/3/6 276/3/6 279/3/6
f 279/2/6 277/2/6 280/2/6
f 281/4/6 282/4/6 285/4/6
f 285/4/6 282/4/6 286/4/6
f 285/3/6 286/3/6 287/3/6
f 287/3/6 286/3/6 288/3/6
f 283/3/6 284/3/6 289/3/6
f 289/3/6 284/3/6 290/3/6
f 291/3/6 292/3/6 295/3/6
f 292/4/6 293/4/6 296/4/6
f 295/3/6 292/3/6 296/3/6
f 293/3/6 294/3/6 297/3/6
f 296/4/6 293/4/6 297/4/6
f 297/3/6 294/3/6 298/3/6
f 299/1/6 300/1/6 304/1/6
f 300/4/6 301/4/6 304/4/6
f 301/2/6 302/2/6 305/2/6
f 304/4/6 301/4/6 305/4/6
f 302/3/6 303/3/6 306/3/6
f 305/2/6 302/2/6 306/2/6
f 306/3/6 303/3/6 307/3/6
f 307/3/6 303/3/6 308/3/6
f 299/1/6 304/1/6 309/1/6
f 308/3/6 303/3/6 311/3/6
f 311/3/6 303/3/6 312/3/6
f 299/1/6 309/1/6 313/1/6
f 309/3/6 310/3/6 314/3/6
f 313/1/6 309/1/6 314/1/6
f 310/2/6 311/2/6 315/2/6
f 314/3/6 310/3/6 315/3/6
f 311/2/6 312/2/6 315/2/6
f 315/2/6 312/2/6 316/2/6
f 317/3/6 318/3/6 320/3/6
f 318/2/6 319/2/6 320/2/6
f 320/2/6 319/2/6 321/2/6
f 317/3/6 320/3/6 322/3/6
f 320/3/6 321/3/6 322/3/6
f 322/3/6 321/3/6 323/3/6
f 317/3/6 322/3/6 324/3/6
f 322/2/6 323/2/6 325/2/6
f 324/3/6 322/3/6 325/3/6
f 325/2/6 323/2/6 326/2/6
